<?xml version="1.0"?>
<svg xmlns="http://www.w3.org/2000/svg" viewBox="0 0 96 96" width="512" height="512"><g id="_19-photo" data-name="19-photo"><g id="Glyph"><path d="M84,37.314V12a4,4,0,0,0-4-4H42.472L39.578,2.211A4,4,0,0,0,36,0H20a4,4,0,0,0-3.578,2.211l-4,8A4.012,4.012,0,0,0,12,12V37.3C4.5,42.225,0,48.747,0,56,0,70.731,18.559,82.466,43.081,83.86L38.072,89.2l5.834,5.475,11.261-12a4,4,0,0,0-.089-5.566l-12-12-5.656,5.657,5.031,5.031C23.284,74.4,8,65.9,8,56c0-3.038,1.45-5.94,4-8.548V56a4,4,0,0,0,4,4H80a4,4,0,0,0,4-4V47.45c2.55,2.609,4,5.512,4,8.55,0,7.75-10.212,15.338-24.833,18.452l1.666,7.824C83.767,78.243,96,67.93,96,56,96,48.751,91.489,42.236,84,37.314ZM48,52A16,16,0,1,1,64,36,16.019,16.019,0,0,1,48,52Z"/><circle cx="48" cy="36" r="8"/></g></g></svg>
