<?xml version="1.0" encoding="UTF-8"?>
<!DOCTYPE svg PUBLIC "-//W3C//DTD SVG 1.1//EN" "http://www.w3.org/Graphics/SVG/1.1/DTD/svg11.dtd">
<!-- Creator: CorelDRAW -->
<svg xmlns="http://www.w3.org/2000/svg" xml:space="preserve" width="6.82666in" height="6.82666in" style="shape-rendering:geometricPrecision; text-rendering:geometricPrecision; image-rendering:optimizeQuality; fill-rule:evenodd; clip-rule:evenodd"
viewBox="0 0 6.82666 6.82666"
 xmlns:xlink="http://www.w3.org/1999/xlink">
 <defs>
  <style type="text/css">
   <![CDATA[
    .fil0 {fill:#42424200}
    .fil1 {fill:#FFFFFE;fill-rule:nonzero}
   ]]>
  </style>
 </defs>
 <rect class="fil0" width="6.82666" height="6.82666"/>
 <g id="Layer_x0020_1">
  <metadata id="CorelCorpID_0Corel-Layer"/>
  <g id="_558211280">
   <path id="_558211496" class="fil1" d="M3.32443 0.85398l1.21502 0.0639843 0.000145669 -0.00019685c0.0437559,0.00230315 0.0773661,0.0396535 0.075063,0.0834094 -0.00195669,0.0371654 -0.0291969,0.0670039 -0.0641732,0.0737402l-0.926665 0.234323 2.75591e-005 0.000110236c-0.00997244,0.00251969 -0.0199803,0.0030315 -0.0295984,0.0017874l-1.21501 -0.0639843 -0.000145669 0.00019685c-0.0437559,-0.00230315 -0.0773661,-0.0396496 -0.075063,-0.0834094 0.00195669,-0.0371654 0.0291969,-0.0670039 0.0641732,-0.0737402l0.926661 -0.234319 -2.75591e-005 -0.000110236c0.00997244,-0.00251969 0.0199764,-0.00303543 0.0295945,-0.00179134z"/>
   <g>
    <path id="_558211472" class="fil1" d="M2.91405 1.2828c0.019685,-0.0701811 -0.021252,-0.143035 -0.0914331,-0.16272 -0.0701772,-0.0196811 -0.143035,0.0212559 -0.162717,0.091437l-1.33204 4.7383c-0.00219685,0.00783465 -0.00362992,0.0156969 -0.0043622,0.0235197l0.271945 0 1.31861 -4.69054z"/>
    <path id="_558211352" class="fil1" d="M4.18451 1.26937c0.0122638,-0.0718898 -0.0360669,-0.140122 -0.107957,-0.152386 -0.0718937,-0.0122638 -0.140122,0.0360669 -0.15239,0.107957l-0.822543 4.7383c-0.000574803,0.00337402 -0.00101575,0.00674016 -0.00132677,0.0100906l0.267634 0 0.816583 -4.70396z"/>
    <path id="_558211880" class="fil1" d="M2.67942 1.4975c-0.0730354,0 -0.132244,0.0592087 -0.132244,0.132244 0,0.0730354 0.0592087,0.132244 0.132244,0.132244l1.3085 0c0.0730354,0 0.132244,-0.0592087 0.132244,-0.132244 0,-0.0730354 -0.0592087,-0.132244 -0.132244,-0.132244l-1.3085 0z"/>
    <path id="_558211088" class="fil1" d="M2.45577 2.29213c-0.0730354,0 -0.132244,0.0592087 -0.132244,0.132244 0,0.0730354 0.0592087,0.13224 0.132244,0.13224l1.3947 0c0.0730354,0 0.13224,-0.0592047 0.13224,-0.13224 0,-0.0730354 -0.0592047,-0.132244 -0.13224,-0.132244l-1.3947 0z"/>
    <path id="_558210896" class="fil1" d="M2.23248 3.08675c-0.0730315,0 -0.13224,0.0592087 -0.13224,0.132244 0,0.0730354 0.0592087,0.13224 0.13224,0.13224l1.47956 0c0.0730354,0 0.132244,-0.0592047 0.132244,-0.13224 0,-0.0730354 -0.0592087,-0.132244 -0.132244,-0.132244l-1.47956 0z"/>
    <path id="_558210848" class="fil1" d="M2.00927 3.88137c-0.0730354,0 -0.132244,0.0592087 -0.132244,0.132244 0,0.0730315 0.0592087,0.13224 0.132244,0.13224l1.56483 0c0.0730315,0 0.13224,-0.0592087 0.13224,-0.13224 0,-0.0730354 -0.0592087,-0.132244 -0.13224,-0.132244l-1.56483 0z"/>
    <path id="_558210608" class="fil1" d="M1.78588 4.676c-0.0730315,0 -0.13224,0.0592087 -0.13224,0.13224 0,0.0730354 0.0592087,0.132244 0.13224,0.132244l1.65027 0c0.0730354,0 0.132244,-0.0592087 0.132244,-0.132244 0,-0.0730315 -0.0592087,-0.13224 -0.132244,-0.13224l-1.65027 0z"/>
    <path id="_558211136" class="fil1" d="M1.56249 5.47062c-0.0730354,0 -0.13224,0.0592047 -0.13224,0.13224 0,0.0730354 0.0592047,0.132244 0.13224,0.132244l1.73572 0c0.0730315,0 0.13224,-0.0592087 0.13224,-0.132244 0,-0.0730354 -0.0592087,-0.13224 -0.13224,-0.13224l-1.73572 0z"/>
    <path id="_558210584" class="fil1" d="M4.19698 1.20607c-0.0191102,-0.0701811 -0.0915039,-0.111579 -0.161685,-0.0924685 -0.0701811,0.0191102 -0.111579,0.0915039 -0.0924685,0.161685l1.2875 4.69804 0.272827 0c-0.000559055,-0.00272047 -0.00120472,-0.00544094 -0.00194094,-0.00815748l-1.30423 -4.7591z"/>
    <path id="_558210776" class="fil1" d="M3.75363 3.76513c-0.0191102,-0.0701811 -0.0915039,-0.111579 -0.161685,-0.0924685 -0.0701772,0.0191102 -0.111579,0.0915039 -0.0924685,0.161685l0.586189 2.13898 0.272827 0c-0.000559055,-0.00272047 -0.00120079,-0.00544094 -0.00194094,-0.00815748l-0.602921 -2.20004z"/>
    <path id="_558210536" class="fil1" d="M5.05052 4.94048c0.0730354,0 0.132244,-0.0592087 0.132244,-0.132244 0,-0.0730315 -0.0592087,-0.13224 -0.132244,-0.13224l-1.14354 0c-0.0730315,0 -0.13224,0.0592087 -0.13224,0.13224 0,0.0730354 0.0592087,0.132244 0.13224,0.132244l1.14354 0z"/>
   </g>
  </g>
 </g>
</svg>
